<svg width="299" height="64" viewBox="0 0 299 64" fill="none" xmlns="http://www.w3.org/2000/svg">
<path d="M26.5284 18C26.4072 16.4848 25.839 15.303 24.8239 14.4545C23.8239 13.6061 22.3011 13.1818 20.2557 13.1818C18.9527 13.1818 17.8845 13.3409 17.0511 13.6591C16.233 13.9621 15.6269 14.3788 15.233 14.9091C14.839 15.4394 14.6345 16.0455 14.6193 16.7273C14.589 17.2879 14.6875 17.7955 14.9148 18.25C15.1572 18.6894 15.536 19.0909 16.0511 19.4545C16.5663 19.803 17.2254 20.1212 18.0284 20.4091C18.8314 20.697 19.786 20.9545 20.892 21.1818L24.7102 22C27.286 22.5455 29.4905 23.2652 31.3239 24.1591C33.1572 25.053 34.6572 26.1061 35.8239 27.3182C36.9905 28.5152 37.8466 29.8636 38.392 31.3636C38.9527 32.8636 39.2405 34.5 39.2557 36.2727C39.2405 39.3333 38.4754 41.9242 36.9602 44.0455C35.4451 46.1667 33.2784 47.7803 30.4602 48.8864C27.6572 49.9924 24.286 50.5455 20.3466 50.5455C16.3011 50.5455 12.7708 49.947 9.75568 48.75C6.75568 47.553 4.42235 45.7121 2.75568 43.2273C1.10417 40.7273 0.270833 37.5303 0.255682 33.6364H12.2557C12.3314 35.0606 12.6875 36.2576 13.3239 37.2273C13.9602 38.197 14.8542 38.9318 16.0057 39.4318C17.1723 39.9318 18.5587 40.1818 20.1648 40.1818C21.5133 40.1818 22.642 40.0152 23.5511 39.6818C24.4602 39.3485 25.1496 38.8864 25.6193 38.2955C26.089 37.7045 26.3314 37.0303 26.3466 36.2727C26.3314 35.5606 26.0966 34.9394 25.642 34.4091C25.2027 33.8636 24.4754 33.3788 23.4602 32.9545C22.4451 32.5152 21.0739 32.1061 19.3466 31.7273L14.7102 30.7273C10.589 29.8333 7.33902 28.3409 4.96023 26.25C2.59659 24.1439 1.42235 21.2727 1.4375 17.6364C1.42235 14.6818 2.21023 12.0985 3.80114 9.88636C5.4072 7.65909 7.62689 5.92424 10.4602 4.68182C13.3087 3.43939 16.5739 2.81818 20.2557 2.81818C24.0133 2.81818 27.2633 3.44697 30.0057 4.70454C32.7481 5.96212 34.8617 7.73485 36.3466 10.0227C37.8466 12.2955 38.6042 14.9545 38.6193 18H26.5284ZM44.2443 63.0909V15.0909H56.6989V21.1818H56.9716C57.4261 20 58.0928 18.9167 58.9716 17.9318C59.8504 16.9318 60.9413 16.1364 62.2443 15.5455C63.5473 14.9394 65.0625 14.6364 66.7898 14.6364C69.0928 14.6364 71.2822 15.25 73.358 16.4773C75.4489 17.7045 77.1458 19.6364 78.4489 22.2727C79.767 24.9091 80.4261 28.3333 80.4261 32.5455C80.4261 36.5758 79.7973 39.9167 78.5398 42.5682C77.2973 45.2197 75.6307 47.197 73.5398 48.5C71.464 49.803 69.1837 50.4545 66.6989 50.4545C65.0625 50.4545 63.6004 50.1894 62.3125 49.6591C61.0398 49.1136 59.9489 48.3788 59.0398 47.4545C58.1458 46.5152 57.4564 45.4545 56.9716 44.2727H56.7898V63.0909H44.2443ZM56.517 32.5455C56.517 34.2424 56.7367 35.7121 57.1761 36.9545C57.6307 38.1818 58.267 39.1364 59.0852 39.8182C59.9186 40.4848 60.911 40.8182 62.0625 40.8182C63.214 40.8182 64.1913 40.4924 64.9943 39.8409C65.8125 39.1742 66.4337 38.2273 66.858 37C67.2973 35.7576 67.517 34.2727 67.517 32.5455C67.517 30.8182 67.2973 29.3409 66.858 28.1136C66.4337 26.8712 65.8125 25.9242 64.9943 25.2727C64.1913 24.6061 63.214 24.2727 62.0625 24.2727C60.911 24.2727 59.9186 24.6061 59.0852 25.2727C58.267 25.9242 57.6307 26.8712 57.1761 28.1136C56.7367 29.3409 56.517 30.8182 56.517 32.5455ZM95.4091 50.5455C93.1818 50.5455 91.2121 50.1818 89.5 49.4545C87.803 48.7121 86.4697 47.5909 85.5 46.0909C84.5303 44.5909 84.0455 42.6818 84.0455 40.3636C84.0455 38.4545 84.3712 36.8258 85.0227 35.4773C85.6742 34.1136 86.5833 33 87.75 32.1364C88.9167 31.2727 90.2727 30.6136 91.8182 30.1591C93.3788 29.7045 95.0606 29.4091 96.8636 29.2727C98.8182 29.1212 100.386 28.9394 101.568 28.7273C102.765 28.5 103.629 28.1894 104.159 27.7955C104.689 27.3864 104.955 26.8485 104.955 26.1818V26.0909C104.955 25.1818 104.606 24.4848 103.909 24C103.212 23.5152 102.318 23.2727 101.227 23.2727C100.03 23.2727 99.053 23.5379 98.2955 24.0682C97.553 24.5833 97.1061 25.3788 96.9545 26.4545H85.4091C85.5606 24.3333 86.2348 22.3788 87.4318 20.5909C88.6439 18.7879 90.4091 17.3485 92.7273 16.2727C95.0455 15.1818 97.9394 14.6364 101.409 14.6364C103.909 14.6364 106.152 14.9318 108.136 15.5227C110.121 16.0985 111.811 16.9091 113.205 17.9545C114.598 18.9848 115.659 20.197 116.386 21.5909C117.129 22.9697 117.5 24.4697 117.5 26.0909V50H105.773V45.0909H105.5C104.803 46.3939 103.955 47.447 102.955 48.25C101.97 49.053 100.841 49.6364 99.5682 50C98.3106 50.3636 96.9242 50.5455 95.4091 50.5455ZM99.5 42.6364C100.455 42.6364 101.348 42.4394 102.182 42.0455C103.03 41.6515 103.72 41.0833 104.25 40.3409C104.78 39.5985 105.045 38.697 105.045 37.6364V34.7273C104.712 34.8636 104.356 34.9924 103.977 35.1136C103.614 35.2348 103.22 35.3485 102.795 35.4545C102.386 35.5606 101.947 35.6591 101.477 35.75C101.023 35.8409 100.545 35.9242 100.045 36C99.0758 36.1515 98.2803 36.4015 97.6591 36.75C97.053 37.0833 96.5985 37.5 96.2955 38C96.0076 38.4848 95.8636 39.0303 95.8636 39.6364C95.8636 40.6061 96.2045 41.3485 96.8864 41.8636C97.5682 42.3788 98.4394 42.6364 99.5 42.6364ZM140.312 50.6364C136.525 50.6364 133.282 49.8864 130.585 48.3864C127.888 46.8712 125.82 44.7652 124.381 42.0682C122.941 39.3561 122.222 36.2121 122.222 32.6364C122.222 29.0606 122.941 25.9242 124.381 23.2273C125.82 20.5152 127.888 18.4091 130.585 16.9091C133.282 15.3939 136.525 14.6364 140.312 14.6364C143.737 14.6364 146.699 15.2576 149.199 16.5C151.714 17.7273 153.661 19.4697 155.04 21.7273C156.419 23.9697 157.116 26.6061 157.131 29.6364H145.494C145.328 27.803 144.797 26.4091 143.903 25.4545C143.025 24.4848 141.888 24 140.494 24C139.403 24 138.449 24.3182 137.631 24.9545C136.813 25.5758 136.176 26.5227 135.722 27.7955C135.267 29.053 135.04 30.6364 135.04 32.5455C135.04 34.4545 135.267 36.0455 135.722 37.3182C136.176 38.5758 136.813 39.5227 137.631 40.1591C138.449 40.7803 139.403 41.0909 140.494 41.0909C141.419 41.0909 142.237 40.8788 142.949 40.4545C143.661 40.0152 144.237 39.3788 144.676 38.5455C145.131 37.697 145.403 36.6667 145.494 35.4545H157.131C157.085 38.5303 156.381 41.2121 155.017 43.5C153.653 45.7727 151.722 47.5303 149.222 48.7727C146.737 50.0152 143.767 50.6364 140.312 50.6364ZM179.034 50.6364C175.307 50.6364 172.095 49.9242 169.398 48.5C166.716 47.0606 164.648 45 163.193 42.3182C161.754 39.6212 161.034 36.3939 161.034 32.6364C161.034 29.0303 161.761 25.8788 163.216 23.1818C164.67 20.4848 166.723 18.3864 169.375 16.8864C172.027 15.3864 175.155 14.6364 178.761 14.6364C181.398 14.6364 183.784 15.0455 185.92 15.8636C188.057 16.6818 189.883 17.8712 191.398 19.4318C192.913 20.9773 194.08 22.8561 194.898 25.0682C195.716 27.2803 196.125 29.7727 196.125 32.5455V35.4545H164.943V28.5455H184.58C184.564 27.5455 184.307 26.6667 183.807 25.9091C183.322 25.1364 182.663 24.5379 181.83 24.1136C181.011 23.6742 180.08 23.4545 179.034 23.4545C178.019 23.4545 177.087 23.6742 176.239 24.1136C175.39 24.5379 174.708 25.1288 174.193 25.8864C173.693 26.6439 173.428 27.5303 173.398 28.5455V36C173.398 37.1212 173.633 38.1212 174.102 39C174.572 39.8788 175.246 40.5682 176.125 41.0682C177.004 41.5682 178.064 41.8182 179.307 41.8182C180.17 41.8182 180.958 41.697 181.67 41.4545C182.398 41.2121 183.019 40.8636 183.534 40.4091C184.049 39.9394 184.428 39.3788 184.67 38.7273H196.125C195.731 41.1515 194.799 43.2576 193.33 45.0455C191.86 46.8182 189.913 48.197 187.489 49.1818C185.08 50.1515 182.261 50.6364 179.034 50.6364Z" fill="black"/>
<path d="M214.608 3.45454L222.244 17H222.608L230.335 3.45454H244.426L230.517 26.7273L244.972 50H230.517L222.608 36.1818H222.244L214.335 50H199.972L214.244 26.7273L200.426 3.45454H214.608ZM250.057 50V15.0909H262.602V50H250.057ZM256.33 11.4545C254.633 11.4545 253.178 10.8939 251.966 9.77273C250.754 8.65151 250.148 7.30303 250.148 5.72727C250.148 4.15151 250.754 2.80303 251.966 1.68182C253.178 0.560605 254.633 0 256.33 0C258.042 0 259.496 0.560605 260.693 1.68182C261.905 2.80303 262.511 4.15151 262.511 5.72727C262.511 7.30303 261.905 8.65151 260.693 9.77273C259.496 10.8939 258.042 11.4545 256.33 11.4545ZM280.085 50.7045C277.873 50.7045 275.881 50.3106 274.108 49.5227C272.35 48.7197 270.956 47.5379 269.926 45.9773C268.911 44.4167 268.403 42.4924 268.403 40.2045C268.403 38.2348 268.767 36.6061 269.494 35.3182C270.222 34.0303 271.214 33 272.472 32.2273C273.729 31.4545 275.146 30.8712 276.722 30.4773C278.313 30.0682 279.956 29.7727 281.653 29.5909C283.699 29.3788 285.358 29.1894 286.631 29.0227C287.903 28.8409 288.828 28.5682 289.403 28.2045C289.994 27.8258 290.29 27.2424 290.29 26.4545V26.3182C290.29 24.6061 289.782 23.2803 288.767 22.3409C287.752 21.4015 286.29 20.9318 284.381 20.9318C282.366 20.9318 280.767 21.3712 279.585 22.25C278.419 23.1288 277.631 24.1667 277.222 25.3636L269.54 24.2727C270.146 22.1515 271.146 20.3788 272.54 18.9545C273.934 17.5151 275.638 16.4394 277.653 15.7273C279.669 15 281.896 14.6364 284.335 14.6364C286.017 14.6364 287.691 14.8333 289.358 15.2273C291.025 15.6212 292.547 16.2727 293.926 17.1818C295.305 18.0758 296.411 19.2955 297.244 20.8409C298.093 22.3864 298.517 24.3182 298.517 26.6364V50H290.608V45.2045H290.335C289.835 46.1742 289.131 47.0833 288.222 47.9318C287.328 48.7652 286.199 49.4394 284.835 49.9545C283.487 50.4545 281.903 50.7045 280.085 50.7045ZM282.222 44.6591C283.873 44.6591 285.305 44.3333 286.517 43.6818C287.729 43.0152 288.661 42.1364 289.312 41.0455C289.979 39.9545 290.312 38.7652 290.312 37.4773V33.3636C290.055 33.5758 289.616 33.7727 288.994 33.9545C288.388 34.1364 287.706 34.2955 286.949 34.4318C286.191 34.5682 285.441 34.6894 284.699 34.7955C283.956 34.9015 283.313 34.9924 282.767 35.0682C281.54 35.2348 280.441 35.5076 279.472 35.8864C278.502 36.2652 277.737 36.7955 277.176 37.4773C276.616 38.1439 276.335 39.0076 276.335 40.0682C276.335 41.5833 276.888 42.7273 277.994 43.5C279.1 44.2727 280.509 44.6591 282.222 44.6591Z" fill="#443081"/>
</svg>
