<svg width="391" height="63" viewBox="0 0 391 63" fill="none" xmlns="http://www.w3.org/2000/svg">
<path d="M26.5284 17C26.4072 15.4848 25.839 14.303 24.8239 13.4545C23.8239 12.6061 22.3011 12.1818 20.2557 12.1818C18.9527 12.1818 17.8845 12.3409 17.0511 12.6591C16.233 12.9621 15.6269 13.3788 15.233 13.9091C14.839 14.4394 14.6345 15.0455 14.6193 15.7273C14.589 16.2879 14.6875 16.7955 14.9148 17.25C15.1572 17.6894 15.536 18.0909 16.0511 18.4545C16.5663 18.803 17.2254 19.1212 18.0284 19.4091C18.8314 19.697 19.786 19.9545 20.892 20.1818L24.7102 21C27.286 21.5455 29.4905 22.2652 31.3239 23.1591C33.1572 24.053 34.6572 25.1061 35.8239 26.3182C36.9905 27.5152 37.8466 28.8636 38.392 30.3636C38.9527 31.8636 39.2405 33.5 39.2557 35.2727C39.2405 38.3333 38.4754 40.9242 36.9602 43.0455C35.4451 45.1667 33.2784 46.7803 30.4602 47.8864C27.6572 48.9924 24.286 49.5455 20.3466 49.5455C16.3011 49.5455 12.7708 48.947 9.75568 47.75C6.75568 46.553 4.42235 44.7121 2.75568 42.2273C1.10417 39.7273 0.270833 36.5303 0.255682 32.6364H12.2557C12.3314 34.0606 12.6875 35.2576 13.3239 36.2273C13.9602 37.197 14.8542 37.9318 16.0057 38.4318C17.1723 38.9318 18.5587 39.1818 20.1648 39.1818C21.5133 39.1818 22.642 39.0152 23.5511 38.6818C24.4602 38.3485 25.1496 37.8864 25.6193 37.2955C26.089 36.7045 26.3314 36.0303 26.3466 35.2727C26.3314 34.5606 26.0966 33.9394 25.642 33.4091C25.2027 32.8636 24.4754 32.3788 23.4602 31.9545C22.4451 31.5152 21.0739 31.1061 19.3466 30.7273L14.7102 29.7273C10.589 28.8333 7.33902 27.3409 4.96023 25.25C2.59659 23.1439 1.42235 20.2727 1.4375 16.6364C1.42235 13.6818 2.21023 11.0985 3.80114 8.88636C5.4072 6.65909 7.62689 4.92424 10.4602 3.68182C13.3087 2.43939 16.5739 1.81818 20.2557 1.81818C24.0133 1.81818 27.2633 2.44697 30.0057 3.70454C32.7481 4.96212 34.8617 6.73485 36.3466 9.02273C37.8466 11.2955 38.6042 13.9545 38.6193 17H26.5284ZM44.2443 62.0909V14.0909H56.6989V20.1818H56.9716C57.4261 19 58.0928 17.9167 58.9716 16.9318C59.8504 15.9318 60.9413 15.1364 62.2443 14.5455C63.5473 13.9394 65.0625 13.6364 66.7898 13.6364C69.0928 13.6364 71.2822 14.25 73.358 15.4773C75.4489 16.7045 77.1458 18.6364 78.4489 21.2727C79.767 23.9091 80.4261 27.3333 80.4261 31.5455C80.4261 35.5758 79.7973 38.9167 78.5398 41.5682C77.2973 44.2197 75.6307 46.197 73.5398 47.5C71.464 48.803 69.1837 49.4545 66.6989 49.4545C65.0625 49.4545 63.6004 49.1894 62.3125 48.6591C61.0398 48.1136 59.9489 47.3788 59.0398 46.4545C58.1458 45.5152 57.4564 44.4545 56.9716 43.2727H56.7898V62.0909H44.2443ZM56.517 31.5455C56.517 33.2424 56.7367 34.7121 57.1761 35.9545C57.6307 37.1818 58.267 38.1364 59.0852 38.8182C59.9186 39.4848 60.911 39.8182 62.0625 39.8182C63.214 39.8182 64.1913 39.4924 64.9943 38.8409C65.8125 38.1742 66.4337 37.2273 66.858 36C67.2973 34.7576 67.517 33.2727 67.517 31.5455C67.517 29.8182 67.2973 28.3409 66.858 27.1136C66.4337 25.8712 65.8125 24.9242 64.9943 24.2727C64.1913 23.6061 63.214 23.2727 62.0625 23.2727C60.911 23.2727 59.9186 23.6061 59.0852 24.2727C58.267 24.9242 57.6307 25.8712 57.1761 27.1136C56.7367 28.3409 56.517 29.8182 56.517 31.5455ZM95.4091 49.5455C93.1818 49.5455 91.2121 49.1818 89.5 48.4545C87.803 47.7121 86.4697 46.5909 85.5 45.0909C84.5303 43.5909 84.0455 41.6818 84.0455 39.3636C84.0455 37.4545 84.3712 35.8258 85.0227 34.4773C85.6742 33.1136 86.5833 32 87.75 31.1364C88.9167 30.2727 90.2727 29.6136 91.8182 29.1591C93.3788 28.7045 95.0606 28.4091 96.8636 28.2727C98.8182 28.1212 100.386 27.9394 101.568 27.7273C102.765 27.5 103.629 27.1894 104.159 26.7955C104.689 26.3864 104.955 25.8485 104.955 25.1818V25.0909C104.955 24.1818 104.606 23.4848 103.909 23C103.212 22.5152 102.318 22.2727 101.227 22.2727C100.03 22.2727 99.053 22.5379 98.2955 23.0682C97.553 23.5833 97.1061 24.3788 96.9545 25.4545H85.4091C85.5606 23.3333 86.2348 21.3788 87.4318 19.5909C88.6439 17.7879 90.4091 16.3485 92.7273 15.2727C95.0455 14.1818 97.9394 13.6364 101.409 13.6364C103.909 13.6364 106.152 13.9318 108.136 14.5227C110.121 15.0985 111.811 15.9091 113.205 16.9545C114.598 17.9848 115.659 19.197 116.386 20.5909C117.129 21.9697 117.5 23.4697 117.5 25.0909V49H105.773V44.0909H105.5C104.803 45.3939 103.955 46.447 102.955 47.25C101.97 48.053 100.841 48.6364 99.5682 49C98.3106 49.3636 96.9242 49.5455 95.4091 49.5455ZM99.5 41.6364C100.455 41.6364 101.348 41.4394 102.182 41.0455C103.03 40.6515 103.72 40.0833 104.25 39.3409C104.78 38.5985 105.045 37.697 105.045 36.6364V33.7273C104.712 33.8636 104.356 33.9924 103.977 34.1136C103.614 34.2348 103.22 34.3485 102.795 34.4545C102.386 34.5606 101.947 34.6591 101.477 34.75C101.023 34.8409 100.545 34.9242 100.045 35C99.0758 35.1515 98.2803 35.4015 97.6591 35.75C97.053 36.0833 96.5985 36.5 96.2955 37C96.0076 37.4848 95.8636 38.0303 95.8636 38.6364C95.8636 39.6061 96.2045 40.3485 96.8864 40.8636C97.5682 41.3788 98.4394 41.6364 99.5 41.6364ZM140.312 49.6364C136.525 49.6364 133.282 48.8864 130.585 47.3864C127.888 45.8712 125.82 43.7652 124.381 41.0682C122.941 38.3561 122.222 35.2121 122.222 31.6364C122.222 28.0606 122.941 24.9242 124.381 22.2273C125.82 19.5152 127.888 17.4091 130.585 15.9091C133.282 14.3939 136.525 13.6364 140.312 13.6364C143.737 13.6364 146.699 14.2576 149.199 15.5C151.714 16.7273 153.661 18.4697 155.04 20.7273C156.419 22.9697 157.116 25.6061 157.131 28.6364H145.494C145.328 26.803 144.797 25.4091 143.903 24.4545C143.025 23.4848 141.888 23 140.494 23C139.403 23 138.449 23.3182 137.631 23.9545C136.813 24.5758 136.176 25.5227 135.722 26.7955C135.267 28.053 135.04 29.6364 135.04 31.5455C135.04 33.4545 135.267 35.0455 135.722 36.3182C136.176 37.5758 136.813 38.5227 137.631 39.1591C138.449 39.7803 139.403 40.0909 140.494 40.0909C141.419 40.0909 142.237 39.8788 142.949 39.4545C143.661 39.0152 144.237 38.3788 144.676 37.5455C145.131 36.697 145.403 35.6667 145.494 34.4545H157.131C157.085 37.5303 156.381 40.2121 155.017 42.5C153.653 44.7727 151.722 46.5303 149.222 47.7727C146.737 49.0152 143.767 49.6364 140.312 49.6364ZM179.034 49.6364C175.307 49.6364 172.095 48.9242 169.398 47.5C166.716 46.0606 164.648 44 163.193 41.3182C161.754 38.6212 161.034 35.3939 161.034 31.6364C161.034 28.0303 161.761 24.8788 163.216 22.1818C164.67 19.4848 166.723 17.3864 169.375 15.8864C172.027 14.3864 175.155 13.6364 178.761 13.6364C181.398 13.6364 183.784 14.0455 185.92 14.8636C188.057 15.6818 189.883 16.8712 191.398 18.4318C192.913 19.9773 194.08 21.8561 194.898 24.0682C195.716 26.2803 196.125 28.7727 196.125 31.5455V34.4545H164.943V27.5455H184.58C184.564 26.5455 184.307 25.6667 183.807 24.9091C183.322 24.1364 182.663 23.5379 181.83 23.1136C181.011 22.6742 180.08 22.4545 179.034 22.4545C178.019 22.4545 177.087 22.6742 176.239 23.1136C175.39 23.5379 174.708 24.1288 174.193 24.8864C173.693 25.6439 173.428 26.5303 173.398 27.5455V35C173.398 36.1212 173.633 37.1212 174.102 38C174.572 38.8788 175.246 39.5682 176.125 40.0682C177.004 40.5682 178.064 40.8182 179.307 40.8182C180.17 40.8182 180.958 40.697 181.67 40.4545C182.398 40.2121 183.019 39.8636 183.534 39.4091C184.049 38.9394 184.428 38.3788 184.67 37.7273H196.125C195.731 40.1515 194.799 42.2576 193.33 44.0455C191.86 45.8182 189.913 47.197 187.489 48.1818C185.08 49.1515 182.261 49.6364 179.034 49.6364Z" fill="black"/>
<path d="M214.608 2.45454L222.244 16H222.608L230.335 2.45454H244.426L230.517 25.7273L244.972 49H230.517L222.608 35.1818H222.244L214.335 49H199.972L214.244 25.7273L200.426 2.45454H214.608ZM251.102 62.0909V14.0909H259.193V19.8636H259.67C260.095 19.0152 260.693 18.1136 261.466 17.1591C262.239 16.1894 263.284 15.3636 264.602 14.6818C265.92 13.9848 267.602 13.6364 269.648 13.6364C272.345 13.6364 274.777 14.3258 276.943 15.7045C279.125 17.0682 280.852 19.0909 282.125 21.7727C283.413 24.4394 284.057 27.7121 284.057 31.5909C284.057 35.4242 283.428 38.6818 282.17 41.3636C280.913 44.0455 279.201 46.0909 277.034 47.5C274.867 48.9091 272.413 49.6136 269.67 49.6136C267.67 49.6136 266.011 49.2803 264.693 48.6136C263.375 47.947 262.314 47.1439 261.511 46.2045C260.723 45.25 260.11 44.3485 259.67 43.5H259.33V62.0909H251.102ZM259.17 31.5455C259.17 33.803 259.489 35.7803 260.125 37.4773C260.777 39.1742 261.708 40.5 262.92 41.4545C264.148 42.3939 265.633 42.8636 267.375 42.8636C269.193 42.8636 270.716 42.3788 271.943 41.4091C273.17 40.4242 274.095 39.0833 274.716 37.3864C275.352 35.6742 275.67 33.7273 275.67 31.5455C275.67 29.3788 275.36 27.4545 274.739 25.7727C274.117 24.0909 273.193 22.7727 271.966 21.8182C270.739 20.8636 269.208 20.3864 267.375 20.3864C265.617 20.3864 264.125 20.8485 262.898 21.7727C261.67 22.697 260.739 23.9924 260.102 25.6591C259.481 27.3258 259.17 29.2879 259.17 31.5455ZM306.557 49.6818C303.057 49.6818 300.034 48.9545 297.489 47.5C294.958 46.0303 293.011 43.9545 291.648 41.2727C290.284 38.5758 289.602 35.4015 289.602 31.75C289.602 28.1591 290.284 25.0076 291.648 22.2955C293.027 19.5682 294.951 17.447 297.42 15.9318C299.89 14.4015 302.792 13.6364 306.125 13.6364C308.277 13.6364 310.307 13.9848 312.216 14.6818C314.14 15.3636 315.837 16.4242 317.307 17.8636C318.792 19.303 319.958 21.1364 320.807 23.3636C321.655 25.5758 322.08 28.2121 322.08 31.2727V33.7955H293.466V28.25H314.193C314.178 26.6742 313.837 25.2727 313.17 24.0455C312.504 22.803 311.572 21.8258 310.375 21.1136C309.193 20.4015 307.814 20.0455 306.239 20.0455C304.557 20.0455 303.08 20.4545 301.807 21.2727C300.534 22.0758 299.542 23.1364 298.83 24.4545C298.133 25.7576 297.777 27.1894 297.761 28.75V33.5909C297.761 35.6212 298.133 37.3636 298.875 38.8182C299.617 40.2576 300.655 41.3636 301.989 42.1364C303.322 42.8939 304.883 43.2727 306.67 43.2727C307.867 43.2727 308.951 43.1061 309.92 42.7727C310.89 42.4242 311.731 41.9167 312.443 41.25C313.155 40.5833 313.693 39.7576 314.057 38.7727L321.739 39.6364C321.254 41.6667 320.33 43.4394 318.966 44.9545C317.617 46.4545 315.89 47.6212 313.784 48.4545C311.678 49.2727 309.269 49.6818 306.557 49.6818ZM341.994 49.6136C339.252 49.6136 336.797 48.9091 334.631 47.5C332.464 46.0909 330.752 44.0455 329.494 41.3636C328.237 38.6818 327.608 35.4242 327.608 31.5909C327.608 27.7121 328.244 24.4394 329.517 21.7727C330.805 19.0909 332.54 17.0682 334.722 15.7045C336.903 14.3258 339.335 13.6364 342.017 13.6364C344.063 13.6364 345.744 13.9848 347.062 14.6818C348.381 15.3636 349.426 16.1894 350.199 17.1591C350.972 18.1136 351.57 19.0152 351.994 19.8636H352.335V2.45454H360.585V49H352.494V43.5H351.994C351.57 44.3485 350.956 45.25 350.153 46.2045C349.35 47.1439 348.29 47.947 346.972 48.6136C345.653 49.2803 343.994 49.6136 341.994 49.6136ZM344.29 42.8636C346.032 42.8636 347.517 42.3939 348.744 41.4545C349.972 40.5 350.903 39.1742 351.54 37.4773C352.176 35.7803 352.494 33.803 352.494 31.5455C352.494 29.2879 352.176 27.3258 351.54 25.6591C350.919 23.9924 349.994 22.697 348.767 21.7727C347.555 20.8485 346.063 20.3864 344.29 20.3864C342.456 20.3864 340.926 20.8636 339.699 21.8182C338.472 22.7727 337.547 24.0909 336.926 25.7727C336.305 27.4545 335.994 29.3788 335.994 31.5455C335.994 33.7273 336.305 35.6742 336.926 37.3864C337.563 39.0833 338.494 40.4242 339.722 41.4091C340.964 42.3788 342.487 42.8636 344.29 42.8636ZM369.352 49V14.0909H377.58V49H369.352ZM373.489 9.13636C372.186 9.13636 371.064 8.70455 370.125 7.84091C369.186 6.96212 368.716 5.90909 368.716 4.68182C368.716 3.43939 369.186 2.38636 370.125 1.52272C371.064 0.643937 372.186 0.204544 373.489 0.204544C374.807 0.204544 375.928 0.643937 376.852 1.52272C377.792 2.38636 378.261 3.43939 378.261 4.68182C378.261 5.90909 377.792 6.96212 376.852 7.84091C375.928 8.70455 374.807 9.13636 373.489 9.13636ZM396.085 49.7045C393.873 49.7045 391.881 49.3106 390.108 48.5227C388.35 47.7197 386.956 46.5379 385.926 44.9773C384.911 43.4167 384.403 41.4924 384.403 39.2045C384.403 37.2348 384.767 35.6061 385.494 34.3182C386.222 33.0303 387.214 32 388.472 31.2273C389.729 30.4545 391.146 29.8712 392.722 29.4773C394.313 29.0682 395.956 28.7727 397.653 28.5909C399.699 28.3788 401.358 28.1894 402.631 28.0227C403.903 27.8409 404.828 27.5682 405.403 27.2045C405.994 26.8258 406.29 26.2424 406.29 25.4545V25.3182C406.29 23.6061 405.782 22.2803 404.767 21.3409C403.752 20.4015 402.29 19.9318 400.381 19.9318C398.366 19.9318 396.767 20.3712 395.585 21.25C394.419 22.1288 393.631 23.1667 393.222 24.3636L385.54 23.2727C386.146 21.1515 387.146 19.3788 388.54 17.9545C389.934 16.5151 391.638 15.4394 393.653 14.7273C395.669 14 397.896 13.6364 400.335 13.6364C402.017 13.6364 403.691 13.8333 405.358 14.2273C407.025 14.6212 408.547 15.2727 409.926 16.1818C411.305 17.0758 412.411 18.2955 413.244 19.8409C414.093 21.3864 414.517 23.3182 414.517 25.6364V49H406.608V44.2045H406.335C405.835 45.1742 405.131 46.0833 404.222 46.9318C403.328 47.7652 402.199 48.4394 400.835 48.9545C399.487 49.4545 397.903 49.7045 396.085 49.7045ZM398.222 43.6591C399.873 43.6591 401.305 43.3333 402.517 42.6818C403.729 42.0152 404.661 41.1364 405.312 40.0455C405.979 38.9545 406.312 37.7652 406.312 36.4773V32.3636C406.055 32.5758 405.616 32.7727 404.994 32.9545C404.388 33.1364 403.706 33.2955 402.949 33.4318C402.191 33.5682 401.441 33.6894 400.699 33.7955C399.956 33.9015 399.313 33.9924 398.767 34.0682C397.54 34.2348 396.441 34.5076 395.472 34.8864C394.502 35.2652 393.737 35.7955 393.176 36.4773C392.616 37.1439 392.335 38.0076 392.335 39.0682C392.335 40.5833 392.888 41.7273 393.994 42.5C395.1 43.2727 396.509 43.6591 398.222 43.6591Z" fill="#443081"/>
</svg>
